<svg xmlns="http://www.w3.org/2000/svg" width="1600" height="900" viewBox="0 0 1600 900" role="img" aria-labelledby="t d"><title id="t">가입코드만 강조하는 사이트 체크 포인트</title><desc id="d">코드 홍보 비중이 과한 경우 무엇을 먼저 다시 볼지 정리합니다.</desc><defs><linearGradient id="bg" x1="0" y1="0" x2="1" y2="1"><stop offset="0%" stop-color="#f8fafc"/><stop offset="100%" stop-color="#eef2f7"/></linearGradient><linearGradient id="line" x1="0" y1="0" x2="1" y2="0"><stop offset="0%" stop-color="#2f5b8a" stop-opacity="0.05"/><stop offset="100%" stop-color="#2f5b8a" stop-opacity="0.18"/></linearGradient></defs><rect width="1600" height="900" fill="url(#bg)"/><rect x="72" y="72" width="1456" height="756" rx="36" fill="#ffffff" stroke="#d9e2ec"/><rect x="88" y="88" width="1424" height="16" rx="8" fill="url(#line)"/><g opacity="0.55"><path d="M1080 184c86 0 156 70 156 156s-70 156-156 156-156-70-156-156 70-156 156-156Zm0 38c-65 0-118 53-118 118s53 118 118 118 118-53 118-118-53-118-118-118Z" fill="#eef3f8"/><path d="M1218 300c48 0 88 40 88 88s-40 88-88 88-88-40-88-88 40-88 88-88Zm0 26c-34 0-62 28-62 62s28 62 62 62 62-28 62-62-28-62-62-62Z" fill="#eef3f8"/><rect x="1010" y="548" width="356" height="16" rx="8" fill="#eef3f8"/><rect x="1010" y="586" width="270" height="16" rx="8" fill="#eef3f8"/><rect x="1010" y="624" width="318" height="16" rx="8" fill="#eef3f8"/></g><g><rect x="88" y="136" width="220" height="46" rx="23" fill="#edf3fa"/><text x="198" y="166" text-anchor="middle" font-family="Pretendard, Apple SD Gothic Neo, Noto Sans KR, sans-serif" font-size="20" font-weight="700" fill="#365d85">검증·먹튀 예방</text></g><text font-family="Pretendard, Apple SD Gothic Neo, Noto Sans KR, sans-serif" font-size="62" font-weight="800" fill="#0f172a"><tspan x="88" y="248">가입코드만 강조하는 사이트 체크</tspan><tspan x="88" y="318">포인트</tspan></text><text font-family="Pretendard, Apple SD Gothic Neo, Noto Sans KR, sans-serif" font-size="26" font-weight="500" fill="#475569"><tspan x="88" y="468">코드 홍보 비중이 과한 경우 무엇을 먼저 다시 볼지</tspan><tspan x="88" y="502">정리합니다.</tspan></text><g transform="translate(88,640)"><rect width="184" height="48" rx="24" fill="#f6f8fb" stroke="#dbe3ec"/><text x="92" y="31" text-anchor="middle" font-family="Pretendard, Apple SD Gothic Neo, Noto Sans KR, sans-serif" font-size="18" font-weight="600" fill="#1c3551">먹튀검증</text></g><g transform="translate(308,640)"><rect width="184" height="48" rx="24" fill="#f6f8fb" stroke="#dbe3ec"/><text x="92" y="31" text-anchor="middle" font-family="Pretendard, Apple SD Gothic Neo, Noto Sans KR, sans-serif" font-size="18" font-weight="600" fill="#1c3551">먹튀 예방</text></g><g transform="translate(528,640)"><rect width="184" height="48" rx="24" fill="#f6f8fb" stroke="#dbe3ec"/><text x="92" y="31" text-anchor="middle" font-family="Pretendard, Apple SD Gothic Neo, Noto Sans KR, sans-serif" font-size="18" font-weight="600" fill="#1c3551">출금 지연</text></g><text x="88" y="778" font-family="Pretendard, Apple SD Gothic Neo, Noto Sans KR, sans-serif" font-size="22" font-weight="700" fill="#20344a">RAVEN · 88ST.CLOUD BLOG</text><text x="1510" y="778" text-anchor="end" font-family="Pretendard, Apple SD Gothic Neo, Noto Sans KR, sans-serif" font-size="18" font-weight="600" fill="#64748b">전문가형 짧은 정리</text></svg>