<svg xmlns="http://www.w3.org/2000/svg" width="1200" height="630" viewBox="0 0 1200 630" role="img" aria-label="가입코드만 강조하는 사이트 체크 포인트">
      <defs>
        <linearGradient id="bg" x1="0" y1="0" x2="1" y2="1">
          <stop offset="0%" stop-color="#f8fafc"/>
          <stop offset="100%" stop-color="#ffffff"/>
        </linearGradient>
      </defs>
      <rect width="1200" height="630" rx="32" fill="url(#bg)"/>
      <rect x="36" y="36" width="1128" height="558" rx="28" fill="#ffffff" fill-opacity="0.78" stroke="#e2e8f0"/>
      <g transform="translate(78 64)"><rect x="0" y="0" width="132" height="38" rx="19" fill="#e0e7ff"/><text x="66" y="25" text-anchor="middle" font-size="17" font-weight="800" fill="#4f46e5">레븐 블로그</text></g>
      <text x="78" y="150" font-size="48" font-weight="800" fill="#111827">가입코드만 강조하는 사이트 체크</text><text x="78" y="210" font-size="48" font-weight="800" fill="#111827">포인트</text>
      <text x="78" y="236" font-size="24" fill="#6b7280">코드 홍보 비중이 과한 경우 무엇을 먼저 다시 볼지 정리한 글입니다.</text>
      <g transform="translate(78 256)"><circle cx="12" cy="12" r="12" fill="#e0e7ff"/><path d="M7 12l4 4 7-9" fill="none" stroke="#4f46e5" stroke-width="3" stroke-linecap="round" stroke-linejoin="round"/><text x="34" y="17" font-size="22" font-weight="700" fill="#111827">실전 기준</text></g><g transform="translate(78 308)"><circle cx="12" cy="12" r="12" fill="#e0e7ff"/><path d="M7 12l4 4 7-9" fill="none" stroke="#4f46e5" stroke-width="3" stroke-linecap="round" stroke-linejoin="round"/><text x="34" y="17" font-size="22" font-weight="700" fill="#111827">빠른 점검</text></g><g transform="translate(78 360)"><circle cx="12" cy="12" r="12" fill="#e0e7ff"/><path d="M7 12l4 4 7-9" fill="none" stroke="#4f46e5" stroke-width="3" stroke-linecap="round" stroke-linejoin="round"/><text x="34" y="17" font-size="22" font-weight="700" fill="#111827">핵심 요약</text></g>
      <g transform="translate(86 476)"><rect x="0" y="0" width="104" height="34" rx="17" fill="#ffffff" stroke="#dbe5f0"/><text x="52" y="22" text-anchor="middle" font-size="15" font-weight="700" fill="#6b7280">가입코드만</text></g><g transform="translate(206 476)"><rect x="0" y="0" width="104" height="34" rx="17" fill="#ffffff" stroke="#dbe5f0"/><text x="52" y="22" text-anchor="middle" font-size="15" font-weight="700" fill="#6b7280">강조하는</text></g><g transform="translate(326 476)"><rect x="0" y="0" width="104" height="34" rx="17" fill="#ffffff" stroke="#dbe5f0"/><text x="52" y="22" text-anchor="middle" font-size="15" font-weight="700" fill="#6b7280">포인트</text></g>
      <g transform="translate(830 142)">
          <rect x="0" y="0" width="250" height="340" rx="32" fill="#ffffff" stroke="#dddafc"/>
          <circle cx="76" cy="90" r="26" fill="#e0e7ff"/>
          <rect x="120" y="78" width="86" height="22" rx="11" fill="#ecebff"/>
          <rect x="44" y="144" width="162" height="18" rx="9" fill="#eceff7"/>
          <rect x="44" y="178" width="146" height="18" rx="9" fill="#eceff7"/>
          <rect x="44" y="212" width="132" height="18" rx="9" fill="#eceff7"/>
          <rect x="44" y="264" width="166" height="42" rx="15" fill="#e0e7ff"/>
        </g>
    </svg>