<svg xmlns="http://www.w3.org/2000/svg" width="1200" height="630" viewBox="0 0 1200 630" role="img" aria-label="공개 근거를 기록할 때 남겨야 하는 항목">
      <defs>
        <linearGradient id="bg" x1="0" y1="0" x2="1" y2="1">
          <stop offset="0%" stop-color="#f8fafc"/>
          <stop offset="100%" stop-color="#ffffff"/>
        </linearGradient>
      </defs>
      <rect width="1200" height="630" rx="32" fill="url(#bg)"/>
      <rect x="36" y="36" width="1128" height="558" rx="28" fill="#ffffff" fill-opacity="0.78" stroke="#e2e8f0"/>
      <g transform="translate(78 64)"><rect x="0" y="0" width="132" height="38" rx="19" fill="#ccfbf1"/><text x="66" y="25" text-anchor="middle" font-size="17" font-weight="800" fill="#0f766e">레븐 블로그</text></g>
      <text x="78" y="150" font-size="48" font-weight="800" fill="#1f2937">공개 근거를 기록할 때 남겨야</text><text x="78" y="210" font-size="48" font-weight="800" fill="#1f2937">하는 항목</text>
      <text x="78" y="236" font-size="24" fill="#6b7280">공개 페이지 근거를 추릴 때 제목, 날짜, URL, 도메인, IP를 어떻게 기록하면 …</text>
      <g transform="translate(78 256)"><circle cx="12" cy="12" r="12" fill="#ccfbf1"/><path d="M7 12l4 4 7-9" fill="none" stroke="#0f766e" stroke-width="3" stroke-linecap="round" stroke-linejoin="round"/><text x="34" y="17" font-size="22" font-weight="700" fill="#1f2937">증거 확보</text></g><g transform="translate(78 308)"><circle cx="12" cy="12" r="12" fill="#ccfbf1"/><path d="M7 12l4 4 7-9" fill="none" stroke="#0f766e" stroke-width="3" stroke-linecap="round" stroke-linejoin="round"/><text x="34" y="17" font-size="22" font-weight="700" fill="#1f2937">시간 순서</text></g><g transform="translate(78 360)"><circle cx="12" cy="12" r="12" fill="#ccfbf1"/><path d="M7 12l4 4 7-9" fill="none" stroke="#0f766e" stroke-width="3" stroke-linecap="round" stroke-linejoin="round"/><text x="34" y="17" font-size="22" font-weight="700" fill="#1f2937">원문 보관</text></g>
      <g transform="translate(86 476)"><rect x="0" y="0" width="104" height="34" rx="17" fill="#ffffff" stroke="#dbe5f0"/><text x="52" y="22" text-anchor="middle" font-size="15" font-weight="700" fill="#6b7280">공개</text></g><g transform="translate(206 476)"><rect x="0" y="0" width="104" height="34" rx="17" fill="#ffffff" stroke="#dbe5f0"/><text x="52" y="22" text-anchor="middle" font-size="15" font-weight="700" fill="#6b7280">근거를</text></g><g transform="translate(326 476)"><rect x="0" y="0" width="104" height="34" rx="17" fill="#ffffff" stroke="#dbe5f0"/><text x="52" y="22" text-anchor="middle" font-size="15" font-weight="700" fill="#6b7280">기록할</text></g>
      <g transform="translate(830 142)">
          <rect x="0" y="0" width="250" height="340" rx="32" fill="#ffffff" stroke="#d7ebe8"/>
          <rect x="44" y="52" width="162" height="224" rx="18" fill="#f8fafc" stroke="#d4dde8"/>
          <rect x="65" y="90" width="120" height="16" rx="8" fill="#dfe8ef"/>
          <rect x="65" y="126" width="104" height="16" rx="8" fill="#dfe8ef"/>
          <rect x="65" y="162" width="128" height="16" rx="8" fill="#dfe8ef"/>
          <rect x="65" y="198" width="92" height="16" rx="8" fill="#dfe8ef"/>
          <circle cx="182" cy="247" r="31" fill="#ccfbf1"/>
          <path d="M170 247l9 10 16-22" fill="none" stroke="#0f766e" stroke-width="8" stroke-linecap="round" stroke-linejoin="round"/>
        </g>
    </svg>