<svg xmlns="http://www.w3.org/2000/svg" width="1200" height="630" viewBox="0 0 1200 630" role="img" aria-label="안전한 토토사이트 선별방법">
      <defs>
        <linearGradient id="bg" x1="0" y1="0" x2="1" y2="1">
          <stop offset="0%" stop-color="#f8fafc"/>
          <stop offset="100%" stop-color="#ffffff"/>
        </linearGradient>
      </defs>
      <rect width="1200" height="630" rx="32" fill="url(#bg)"/>
      <rect x="36" y="36" width="1128" height="558" rx="28" fill="#ffffff" fill-opacity="0.78" stroke="#e2e8f0"/>
      <g transform="translate(78 64)"><rect x="0" y="0" width="132" height="38" rx="19" fill="#dbeafe"/><text x="66" y="25" text-anchor="middle" font-size="17" font-weight="800" fill="#1d4ed8">레븐 블로그</text></g>
      <text x="78" y="150" font-size="48" font-weight="800" fill="#0f172a">안전한 토토사이트 선별방법</text>
      <text x="78" y="236" font-size="24" fill="#64748b">안전한 토토사이트를 고를 때 먼저 확인해야 할 공개 검색, 도메인 생성 시점, DNS…</text>
      <g transform="translate(78 256)"><circle cx="12" cy="12" r="12" fill="#dbeafe"/><path d="M7 12l4 4 7-9" fill="none" stroke="#1d4ed8" stroke-width="3" stroke-linecap="round" stroke-linejoin="round"/><text x="34" y="17" font-size="22" font-weight="700" fill="#0f172a">운영 안정성</text></g><g transform="translate(78 308)"><circle cx="12" cy="12" r="12" fill="#dbeafe"/><path d="M7 12l4 4 7-9" fill="none" stroke="#1d4ed8" stroke-width="3" stroke-linecap="round" stroke-linejoin="round"/><text x="34" y="17" font-size="22" font-weight="700" fill="#0f172a">공지 일치</text></g><g transform="translate(78 360)"><circle cx="12" cy="12" r="12" fill="#dbeafe"/><path d="M7 12l4 4 7-9" fill="none" stroke="#1d4ed8" stroke-width="3" stroke-linecap="round" stroke-linejoin="round"/><text x="34" y="17" font-size="22" font-weight="700" fill="#0f172a">반복 제보</text></g>
      <g transform="translate(86 476)"><rect x="0" y="0" width="104" height="34" rx="17" fill="#ffffff" stroke="#dbe5f0"/><text x="52" y="22" text-anchor="middle" font-size="15" font-weight="700" fill="#64748b">안전한</text></g><g transform="translate(206 476)"><rect x="0" y="0" width="104" height="34" rx="17" fill="#ffffff" stroke="#dbe5f0"/><text x="52" y="22" text-anchor="middle" font-size="15" font-weight="700" fill="#64748b">토토사이트</text></g><g transform="translate(326 476)"><rect x="0" y="0" width="104" height="34" rx="17" fill="#ffffff" stroke="#dbe5f0"/><text x="52" y="22" text-anchor="middle" font-size="15" font-weight="700" fill="#64748b">선별방법</text></g>
      <g transform="translate(830 142)">
          <rect x="0" y="0" width="250" height="340" rx="32" fill="#ffffff" stroke="#d7e4fb"/>
          <path d="M125 64l72 32v61c0 58-40 99-72 115-32-16-72-57-72-115V96z" fill="#dbeafe"/>
          <path d="M125 100l39 16v38c0 35-23 60-39 70-16-10-39-35-39-70v-38z" fill="#ffffff" stroke="#b8cdf7"/>
          <path d="M110 154l14 14 28-34" fill="none" stroke="#1d4ed8" stroke-width="10" stroke-linecap="round" stroke-linejoin="round"/>
          <rect x="56" y="260" width="138" height="18" rx="9" fill="#e9eef7"/>
          <rect x="56" y="294" width="104" height="18" rx="9" fill="#e9eef7"/>
        </g>
    </svg>