<svg xmlns="http://www.w3.org/2000/svg" width="1600" height="800" viewBox="0 0 1600 800" role="img" aria-labelledby="title desc">
<title id="title">여왕벌 로고</title>
<desc id="desc">검정과 골드 톤의 여왕벌 브랜드 로고</desc>
<defs>
  <linearGradient id="bg" x1="0" x2="0" y1="0" y2="1">
    <stop offset="0%" stop-color="#101723"/>
    <stop offset="100%" stop-color="#0a111b"/>
  </linearGradient>
  <linearGradient id="gold" x1="0" x2="1">
    <stop offset="0%" stop-color="#f8d977"/>
    <stop offset="55%" stop-color="#f0b13a"/>
    <stop offset="100%" stop-color="#d99616"/>
  </linearGradient>
  <filter id="shadow" x="-20%" y="-20%" width="140%" height="140%">
    <feDropShadow dx="0" dy="20" stdDeviation="18" flood-color="#000000" flood-opacity=".28"/>
  </filter>
</defs>
<rect width="1600" height="800" fill="url(#bg)"/>
<g opacity=".12">
  <circle cx="220" cy="160" r="140" fill="#f0b13a"/>
  <circle cx="1440" cy="620" r="190" fill="#f0b13a"/>
</g>
<g transform="translate(255 160)" filter="url(#shadow)">
  <circle cx="160" cy="140" r="120" fill="#111827" stroke="url(#gold)" stroke-width="16"/>
  <ellipse cx="160" cy="150" rx="72" ry="54" fill="url(#gold)"/>
  <ellipse cx="114" cy="118" rx="40" ry="58" fill="#0f172a" stroke="url(#gold)" stroke-width="10"/>
  <ellipse cx="206" cy="118" rx="40" ry="58" fill="#0f172a" stroke="url(#gold)" stroke-width="10"/>
  <path d="M160 28 C140 2 110 -10 74 -8" fill="none" stroke="url(#gold)" stroke-width="12" stroke-linecap="round"/>
  <path d="M160 28 C180 2 210 -10 246 -8" fill="none" stroke="url(#gold)" stroke-width="12" stroke-linecap="round"/>
  <circle cx="74" cy="-8" r="12" fill="url(#gold)"/>
  <circle cx="246" cy="-8" r="12" fill="url(#gold)"/>
  <path d="M120 155 h80" stroke="#0f172a" stroke-width="16" stroke-linecap="round"/>
  <path d="M116 178 h88" stroke="#0f172a" stroke-width="16" stroke-linecap="round"/>
  <path d="M128 132 h64" stroke="#0f172a" stroke-width="16" stroke-linecap="round"/>
  <circle cx="160" cy="145" r="8" fill="#0f172a"/>
</g>
<g transform="translate(560 220)">
  <text x="0" y="96" font-size="84" font-weight="800" fill="url(#gold)" letter-spacing="2">QUEEN BEE</text>
  <text x="0" y="220" font-size="150" font-weight="900" fill="#fff7db" letter-spacing="-4">여왕벌</text>
  <rect x="0" y="274" width="388" height="4" rx="2" fill="url(#gold)"/>
  <text x="0" y="352" font-size="38" font-weight="700" fill="#d8dee9" letter-spacing="1">PREMIUM ROUTE · OFFICIAL LINK</text>
</g>
</svg>
